<?xml version="1.0" encoding="UTF-8" standalone="no"?>
<!DOCTYPE svg PUBLIC "-//W3C//DTD SVG 1.1//EN"
 "http://www.w3.org/Graphics/SVG/1.1/DTD/svg11.dtd">
<!-- Generated by graphviz version 14.0.5 (0)
 -->
<!-- Title: ImmediateGrammar Pages: 1 -->
<svg width="515pt" height="44pt"
 viewBox="0.00 0.00 515.00 44.00" xmlns="http://www.w3.org/2000/svg" xmlns:xlink="http://www.w3.org/1999/xlink">
<g id="graph0" class="graph" transform="scale(1 1) rotate(0) translate(4 40)">
<title>ImmediateGrammar</title>
<polygon fill="white" stroke="none" points="-4,4 -4,-40 510.75,-40 510.75,4 -4,4"/>
<!-- A -->
<g id="node1" class="node">
<title>A</title>
<path fill="none" stroke="black" d="M71.5,-36C71.5,-36 12,-36 12,-36 6,-36 0,-30 0,-24 0,-24 0,-12 0,-12 0,-6 6,0 12,0 12,0 71.5,0 71.5,0 77.5,0 83.5,-6 83.5,-12 83.5,-12 83.5,-24 83.5,-24 83.5,-30 77.5,-36 71.5,-36"/>
<text xml:space="preserve" text-anchor="middle" x="41.75" y="-20.53" font-family="Helvetica,sans-Serif" font-size="10.00">A 行為の列挙</text>
<text xml:space="preserve" text-anchor="middle" x="41.75" y="-8.53" font-family="Helvetica,sans-Serif" font-size="10.00">食べて / 飲んで</text>
</g>
<!-- B -->
<g id="node2" class="node">
<title>B</title>
<path fill="none" stroke="black" d="M172.25,-36C172.25,-36 131.5,-36 131.5,-36 125.5,-36 119.5,-30 119.5,-24 119.5,-24 119.5,-12 119.5,-12 119.5,-6 125.5,0 131.5,0 131.5,0 172.25,0 172.25,0 178.25,0 184.25,-6 184.25,-12 184.25,-12 184.25,-24 184.25,-24 184.25,-30 178.25,-36 172.25,-36"/>
<text xml:space="preserve" text-anchor="middle" x="151.88" y="-19.75" font-family="Helvetica,sans-Serif" font-size="10.00">B 接続助詞</text>
<text xml:space="preserve" text-anchor="middle" x="151.88" y="-7.75" font-family="Helvetica,sans-Serif" font-size="10.00">て</text>
</g>
<!-- A&#45;&gt;B -->
<g id="edge1" class="edge">
<title>A&#45;&gt;B</title>
<path fill="none" stroke="black" d="M83.94,-18C91.79,-18 100.04,-18 107.95,-18"/>
<polygon fill="black" stroke="black" points="107.71,-21.5 117.71,-18 107.71,-14.5 107.71,-21.5"/>
</g>
<!-- C -->
<g id="node3" class="node">
<title>C</title>
<path fill="none" stroke="black" d="M264,-36C264,-36 232.25,-36 232.25,-36 226.25,-36 220.25,-30 220.25,-24 220.25,-24 220.25,-12 220.25,-12 220.25,-6 226.25,0 232.25,0 232.25,0 264,0 264,0 270,0 276,-6 276,-12 276,-12 276,-24 276,-24 276,-30 270,-36 264,-36"/>
<text xml:space="preserve" text-anchor="middle" x="248.12" y="-19.75" font-family="Helvetica,sans-Serif" font-size="10.00">C 間投詞</text>
<text xml:space="preserve" text-anchor="middle" x="248.12" y="-7.75" font-family="Helvetica,sans-Serif" font-size="10.00">はい</text>
</g>
<!-- B&#45;&gt;C -->
<g id="edge2" class="edge">
<title>B&#45;&gt;C</title>
<path fill="none" stroke="black" d="M184.52,-18C192.21,-18 200.52,-18 208.49,-18"/>
<polygon fill="black" stroke="black" points="208.31,-21.5 218.31,-18 208.31,-14.5 208.31,-21.5"/>
</g>
<!-- D -->
<g id="node4" class="node">
<title>D</title>
<path fill="none" stroke="black" d="M364.75,-36C364.75,-36 324,-36 324,-36 318,-36 312,-30 312,-24 312,-24 312,-12 312,-12 312,-6 318,0 324,0 324,0 364.75,0 364.75,0 370.75,0 376.75,-6 376.75,-12 376.75,-12 376.75,-24 376.75,-24 376.75,-30 370.75,-36 364.75,-36"/>
<text xml:space="preserve" text-anchor="middle" x="344.38" y="-19.75" font-family="Helvetica,sans-Serif" font-size="10.00">D 未完了</text>
<text xml:space="preserve" text-anchor="middle" x="344.38" y="-7.75" font-family="Helvetica,sans-Serif" font-size="10.00">話者権保持</text>
</g>
<!-- C&#45;&gt;D -->
<g id="edge3" class="edge">
<title>C&#45;&gt;D</title>
<path fill="none" stroke="black" d="M276.39,-18C283.85,-18 292.13,-18 300.25,-18"/>
<polygon fill="black" stroke="black" points="300,-21.5 310,-18 300,-14.5 300,-21.5"/>
</g>
<!-- E -->
<g id="node5" class="node">
<title>E</title>
<path fill="none" stroke="black" d="M494.75,-36C494.75,-36 424.75,-36 424.75,-36 418.75,-36 412.75,-30 412.75,-24 412.75,-24 412.75,-12 412.75,-12 412.75,-6 418.75,0 424.75,0 424.75,0 494.75,0 494.75,0 500.75,0 506.75,-6 506.75,-12 506.75,-12 506.75,-24 506.75,-24 506.75,-30 500.75,-36 494.75,-36"/>
<text xml:space="preserve" text-anchor="middle" x="459.75" y="-19.75" font-family="Helvetica,sans-Serif" font-size="10.00">E 相手への委譲</text>
<text xml:space="preserve" text-anchor="middle" x="459.75" y="-7.75" font-family="Helvetica,sans-Serif" font-size="10.00">（同じだよね？）</text>
</g>
<!-- D&#45;&gt;E -->
<g id="edge4" class="edge">
<title>D&#45;&gt;E</title>
<path fill="none" stroke="black" d="M376.96,-18C384.52,-18 392.84,-18 401.18,-18"/>
<polygon fill="black" stroke="black" points="400.99,-21.5 410.99,-18 400.99,-14.5 400.99,-21.5"/>
</g>
</g>
</svg>
